<svg width="1920" height="1080" viewBox="0 0 1920 1080" fill="none" xmlns="http://www.w3.org/2000/svg">
  <defs>
    <linearGradient id="bgGradient" x1="0" y1="0" x2="1" y2="1">
      <stop offset="0%" stop-color="#020617" />
      <stop offset="45%" stop-color="#0a0f23" />
      <stop offset="100%" stop-color="#1b0f26" />
    </linearGradient>
    <radialGradient id="haze" cx="50%" cy="30%" r="60%">
      <stop offset="0%" stop-color="#6d28d9" stop-opacity="0.45" />
      <stop offset="40%" stop-color="#1e1b4b" stop-opacity="0.25" />
      <stop offset="100%" stop-color="#020617" stop-opacity="0" />
    </radialGradient>
  </defs>
  <rect width="1920" height="1080" fill="url(#bgGradient)" />
  <rect width="1920" height="1080" fill="url(#haze)" />
  <g opacity="0.35">
    <path d="M0 780L200 700L360 740L520 660L720 780V1080H0V780Z" fill="#0f172a" />
    <path d="M720 820L900 680L1080 760L1240 660L1480 780L1920 700V1080H720V820Z" fill="#1e1b4b" />
  </g>
  <g opacity="0.3" stroke="#a78bfa" stroke-width="2">
    <circle cx="300" cy="220" r="50" />
    <circle cx="1580" cy="260" r="70" />
    <path d="M1200 160L1220 200L1260 220L1220 240L1200 280L1180 240L1140 220L1180 200L1200 160Z" />
  </g>
  <g opacity="0.2" fill="#facc15">
    <circle cx="260" cy="180" r="2" />
    <circle cx="460" cy="140" r="3" />
    <circle cx="820" cy="200" r="2" />
    <circle cx="1210" cy="100" r="2" />
    <circle cx="1510" cy="180" r="3" />
    <circle cx="1700" cy="140" r="2" />
    <circle cx="1100" cy="260" r="2" />
    <circle cx="600" cy="220" r="2" />
  </g>
  <rect y="920" width="1920" height="160" fill="url(#bgGradient)" />
</svg>

